<svg xmlns="http://www.w3.org/2000/svg" height="285.2" width="296.92" viewBox="0 0 296.92368 285.19601"><path d="M148.46.15039c-25.725 0-36.75 29.399-36.75 58.799 0 24.67 5.0702 45.962 11.969 61.441-12.59-11.344-31.271-22.746-54.734-30.369-9.9777-3.2418-20.389-5.1484-30.016-5.1484-17.35 0-32.151 6.1941-37.264 21.93-1.0321 3.1764-1.5156 6.2724-1.5156 9.2715 0 20.101 21.751 35.946 46.082 43.852 17.986 5.844 35.004 8.2402 49.561 8.2402 4.4328 0 8.6364-.22182 12.57-.63672-14.68 8.4687-31.294 22.713-45.795 42.672-10.073 13.865-17.117 29.931-17.117 43.916 0 10.007 3.605 18.947 12.285 25.254 5.4165 3.9353 11.2 5.6758 17.094 5.6758 16.753 0 34.418-14.05 47.201-31.645 14.501-19.959 22.912-40.162 26.43-56.74 3.5178 16.578 11.931 36.781 26.432 56.74 12.783 17.595 30.448 31.645 47.201 31.645 5.8941 0 11.675-1.7405 17.092-5.6758 8.6802-6.3065 12.287-15.247 12.287-25.254 0-13.985-7.0438-30.051-17.117-43.916-14.501-19.959-31.115-34.203-45.795-42.672 3.9339.4149 8.1375.63672 12.57.63672 14.557 0 31.574-2.3962 49.561-8.2402 24.33-7.9056 46.082-23.751 46.082-43.852 0-2.9994-.48333-6.0948-1.5156-9.2715-5.1132-15.735-19.913-21.93-37.264-21.93-9.6264 0-20.038 1.9066-30.016 5.1484-23.463 7.6236-42.144 19.025-54.734 30.369 6.8985-15.48 11.967-36.771 11.967-61.441 0-29.4-11.025-58.799-36.75-58.799z" stroke="#000" stroke-width=".3" fill="none"/><circle cx="147.78" stroke="#000" cy="154.58" r="14.301" fill="none"/></svg>